<svg width="44" height="50" viewBox="0 0 44 50" fill="none" xmlns="http://www.w3.org/2000/svg">
<g filter="url(#filter0_d_112_632)">
<path d="M21.75 21.375C21.75 21.0766 21.8685 20.7905 22.0795 20.5795C22.2905 20.3685 22.5766 20.25 22.875 20.25H28.125C28.4234 20.25 28.7095 20.3685 28.9205 20.5795C29.1315 20.7905 29.25 21.0766 29.25 21.375C29.25 21.6734 29.1315 21.9595 28.9205 22.1705C28.7095 22.3815 28.4234 22.5 28.125 22.5H22.875C22.5766 22.5 22.2905 22.3815 22.0795 22.1705C21.8685 21.9595 21.75 21.6734 21.75 21.375ZM22.875 28.5C22.5766 28.5 22.2905 28.6185 22.0795 28.8295C21.8685 29.0405 21.75 29.3266 21.75 29.625C21.75 29.9234 21.8685 30.2095 22.0795 30.4205C22.2905 30.6315 22.5766 30.75 22.875 30.75H28.125C28.4234 30.75 28.7095 30.6315 28.9205 30.4205C29.1315 30.2095 29.25 29.9234 29.25 29.625C29.25 29.3266 29.1315 29.0405 28.9205 28.8295C28.7095 28.6185 28.4234 28.5 28.125 28.5H22.875ZM19.17 20.67C19.2805 20.567 19.3692 20.4428 19.4307 20.3048C19.4922 20.1668 19.5252 20.0178 19.5279 19.8668C19.5306 19.7157 19.5028 19.5657 19.4462 19.4256C19.3896 19.2855 19.3054 19.1583 19.1986 19.0514C19.0917 18.9446 18.9645 18.8604 18.8244 18.8038C18.6843 18.7472 18.5343 18.7194 18.3832 18.7221C18.2322 18.7248 18.0832 18.7578 17.9452 18.8193C17.8072 18.8808 17.683 18.9695 17.58 19.08L15.375 21.285L14.67 20.58C14.4567 20.3813 14.1747 20.2731 13.8832 20.2782C13.5918 20.2834 13.3137 20.4014 13.1076 20.6076C12.9014 20.8137 12.7834 21.0918 12.7782 21.3832C12.7731 21.6747 12.8813 21.9567 13.08 22.17L14.58 23.67C14.7909 23.8807 15.0769 23.999 15.375 23.999C15.6731 23.999 15.9591 23.8807 16.17 23.67L19.17 20.67ZM19.17 27.33C19.3807 27.5409 19.499 27.8269 19.499 28.125C19.499 28.4231 19.3807 28.7091 19.17 28.92L16.17 31.92C15.9591 32.1307 15.6731 32.249 15.375 32.249C15.0769 32.249 14.7909 32.1307 14.58 31.92L13.08 30.42C12.9695 30.317 12.8808 30.1928 12.8193 30.0548C12.7578 29.9168 12.7248 29.7678 12.7221 29.6168C12.7194 29.4657 12.7472 29.3157 12.8038 29.1756C12.8604 29.0355 12.9446 28.9083 13.0514 28.8014C13.1583 28.6946 13.2855 28.6104 13.4256 28.5538C13.5657 28.4972 13.7157 28.4694 13.8668 28.4721C14.0178 28.4748 14.1668 28.5078 14.3048 28.5693C14.4428 28.6308 14.567 28.7195 14.67 28.83L15.375 29.535L17.58 27.33C17.7909 27.1193 18.0769 27.001 18.375 27.001C18.6731 27.001 18.9591 27.1193 19.17 27.33ZM26.991 12.126C26.9281 11.2763 26.5462 10.4818 25.9219 9.90198C25.2976 9.32217 24.477 8.99995 23.625 9H18.375C17.5448 9.00003 16.7438 9.30601 16.1251 9.85946C15.5063 10.4129 15.1132 11.175 15.021 12H12.375C11.4799 12 10.6215 12.3556 9.98851 12.9885C9.35558 13.6214 9 14.4799 9 15.375V35.625C9 36.5201 9.35558 37.3785 9.98851 38.0115C10.6215 38.6444 11.4799 39 12.375 39H29.625C30.0682 39 30.5071 38.9127 30.9166 38.7431C31.326 38.5735 31.6981 38.3249 32.0115 38.0115C32.3249 37.6981 32.5735 37.326 32.7431 36.9166C32.9127 36.5071 33 36.0682 33 35.625V15.375C33 14.9318 32.9127 14.4929 32.7431 14.0834C32.5735 13.674 32.3249 13.3019 32.0115 12.9885C31.6981 12.6751 31.326 12.4265 30.9166 12.2569C30.5071 12.0873 30.0682 12 29.625 12H26.979L26.991 12.126ZM26.991 12.144L27 12.375C27 12.297 26.997 12.2205 26.9925 12.144H26.991ZM18.375 15.75H23.625C24.795 15.75 25.8255 15.1545 26.4315 14.25H29.625C29.9234 14.25 30.2095 14.3685 30.4205 14.5795C30.6315 14.7905 30.75 15.0766 30.75 15.375V35.625C30.75 35.9234 30.6315 36.2095 30.4205 36.4205C30.2095 36.6315 29.9234 36.75 29.625 36.75H12.375C12.0766 36.75 11.7905 36.6315 11.5795 36.4205C11.3685 36.2095 11.25 35.9234 11.25 35.625V15.375C11.25 15.0766 11.3685 14.7905 11.5795 14.5795C11.7905 14.3685 12.0766 14.25 12.375 14.25H15.5685C16.1745 15.1545 17.205 15.75 18.375 15.75ZM18.375 11.25H23.625C23.9234 11.25 24.2095 11.3685 24.4205 11.5795C24.6315 11.7905 24.75 12.0766 24.75 12.375C24.75 12.6734 24.6315 12.9595 24.4205 13.1705C24.2095 13.3815 23.9234 13.5 23.625 13.5H18.375C18.0766 13.5 17.7905 13.3815 17.5795 13.1705C17.3685 12.9595 17.25 12.6734 17.25 12.375C17.25 12.0766 17.3685 11.7905 17.5795 11.5795C17.7905 11.3685 18.0766 11.25 18.375 11.25Z" fill="black"/>
</g>
<defs>
<filter id="filter0_d_112_632" x="0" y="0" width="44" height="50" filterUnits="userSpaceOnUse" color-interpolation-filters="sRGB">
<feFlood flood-opacity="0" result="BackgroundImageFix"/>
<feColorMatrix in="SourceAlpha" type="matrix" values="0 0 0 0 0 0 0 0 0 0 0 0 0 0 0 0 0 0 127 0" result="hardAlpha"/>
<feOffset dx="1" dy="1"/>
<feGaussianBlur stdDeviation="5"/>
<feComposite in2="hardAlpha" operator="out"/>
<feColorMatrix type="matrix" values="0 0 0 0 0 0 0 0 0 0 0 0 0 0 0 0 0 0 0.25 0"/>
<feBlend mode="normal" in2="BackgroundImageFix" result="effect1_dropShadow_112_632"/>
<feBlend mode="normal" in="SourceGraphic" in2="effect1_dropShadow_112_632" result="shape"/>
</filter>
</defs>
</svg>
