<svg width="44" height="50" viewBox="0 0 44 50" fill="none" xmlns="http://www.w3.org/2000/svg">
<g filter="url(#filter0_d_112_631)">
<path d="M32.1926 30.3169C30.9493 28.6477 29.1742 27.4521 27.16 26.9274L27.0972 26.9138L25.6462 29.3631C25.6452 29.6892 25.5152 30.0017 25.2846 30.2323C25.054 30.4629 24.7415 30.5929 24.4154 30.5938C23.7385 30.5938 23.1846 30.04 22.5385 28.4105V28.3711C22.5385 27.9631 22.3764 27.5717 22.0879 27.2832C21.7993 26.9947 21.408 26.8326 21 26.8326C20.592 26.8326 20.2007 26.9947 19.9121 27.2832C19.6236 27.5717 19.4615 27.9631 19.4615 28.3711V28.4117V28.4092C18.7723 30.04 18.2135 30.5926 17.5378 30.5926C17.2117 30.5916 16.8992 30.4617 16.6686 30.2311C16.438 30.0005 16.3081 29.688 16.3071 29.3618L14.9015 26.9077C12.8735 27.4235 11.0822 28.6157 9.82338 30.2874L9.80615 30.3108C9.3072 31.1268 9.02936 32.0587 9 33.0148V33.0234C9.00615 33.208 9 33.4234 9 33.6388V36.1003C9 36.7531 9.25934 37.3792 9.72097 37.8409C10.1826 38.3025 10.8087 38.5618 11.4615 38.5618H30.5385C31.1913 38.5618 31.8174 38.3025 32.279 37.8409C32.7407 37.3792 33 36.7531 33 36.1003V33.6388C33 33.4246 32.9938 33.208 33 33.0234C32.969 32.0564 32.6865 31.1143 32.1803 30.2898L32.1938 30.3145L32.1926 30.3169ZM14.5372 15.5415C14.5372 19.1354 16.7772 24.4154 20.9988 24.4154C25.1465 24.4154 27.4603 19.1354 27.4603 15.5415V15.4615C27.4603 14.613 27.2932 13.7728 26.9685 12.9888C26.6437 12.2049 26.1678 11.4926 25.5678 10.8925C24.9678 10.2925 24.2554 9.81658 23.4715 9.49186C22.6875 9.16713 21.8473 9 20.9988 9C20.1502 9 19.31 9.16713 18.526 9.49186C17.7421 9.81658 17.0298 10.2925 16.4298 10.8925C15.8298 11.4926 15.3538 12.2049 15.0291 12.9888C14.7044 13.7728 14.5372 14.613 14.5372 15.4615V15.5452V15.5415Z" fill="#000000"/>
</g>
<defs>
<filter id="filter0_d_112_631" x="0" y="0" width="44" height="49.562" filterUnits="userSpaceOnUse" color-interpolation-filters="sRGB">
<feFlood flood-opacity="0" result="BackgroundImageFix"/>
<feColorMatrix in="SourceAlpha" type="matrix" values="0 0 0 0 0 0 0 0 0 0 0 0 0 0 0 0 0 0 127 0" result="hardAlpha"/>
<feOffset dx="1" dy="1"/>
<feGaussianBlur stdDeviation="5"/>
<feComposite in2="hardAlpha" operator="out"/>
<feColorMatrix type="matrix" values="0 0 0 0 0 0 0 0 0 0 0 0 0 0 0 0 0 0 0.25 0"/>
<feBlend mode="normal" in2="BackgroundImageFix" result="effect1_dropShadow_112_631"/>
<feBlend mode="normal" in="SourceGraphic" in2="effect1_dropShadow_112_631" result="shape"/>
</filter>
</defs>
</svg>
